
<svg width="221px" height="89px" viewBox="473 378 221 89" version="1.1" xmlns="http://www.w3.org/2000/svg" xmlns:xlink="http://www.w3.org/1999/xlink">
    <!-- Generator: Sketch 40.1 (33804) - http://www.bohemiancoding.com/sketch -->
    <desc>Created with Sketch.</desc>
    <defs></defs>
    <path d="M593.087999,406.704959 L594.660479,410.273279 L596.414399,410.273279 L590.104319,396.16128 L588.43104,396.16128 L582.1008,410.273279 L583.8144,410.273279 L585.38688,406.704959 L593.087999,406.704959 Z M592.402559,405.152639 L586.07232,405.152639 L589.217279,397.99584 L592.402559,405.152639 Z M612.905278,410.273279 L612.905278,396.16128 L610.929598,396.16128 L605.788798,406.321919 L600.627839,396.16128 L598.631999,396.16128 L598.631999,410.273279 L600.164159,410.273279 L600.164159,398.64096 L605.284798,408.781439 L606.252478,408.781439 L611.393278,398.64096 L611.413438,410.273279 L612.905278,410.273279 Z M631.976636,410.273279 L631.976636,396.14112 L628.065596,396.14112 L624.235197,404.547839 L620.404797,396.14112 L616.473597,396.14112 L616.473597,410.273279 L619.679037,410.273279 L619.679037,401.10048 L623.065917,408.862079 L625.404477,408.862079 L628.791356,401.10048 L628.811516,410.273279 L631.976636,410.273279 Z M644.193595,407.672639 L645.201595,410.273279 L649.031995,410.273279 L643.084795,396.16128 L639.395516,396.16128 L633.307196,410.273279 L636.996476,410.273279 L638.024636,407.672639 L644.193595,407.672639 Z M643.145275,404.951039 L639.072956,404.951039 L641.129275,399.7296 L643.145275,404.951039 Z M650.342395,396.16128 L650.342395,410.273279 L653.930874,410.273279 L653.930874,406.301759 L656.491194,406.301759 C660.099834,406.301759 662.176314,404.386559 662.176314,401.08032 C662.176314,397.93536 660.099834,396.16128 656.491194,396.16128 L650.342395,396.16128 Z M653.930874,398.98368 L656.309754,398.98368 C657.882234,398.98368 658.789434,399.7296 658.789434,401.20128 C658.789434,402.693119 657.882234,403.479359 656.309754,403.479359 L653.930874,403.479359 L653.930874,398.98368 Z M669.474233,396 C666.087354,396 663.849594,397.65312 663.849594,400.25376 C663.849594,405.253439 671.308793,403.761599 671.308793,406.261439 C671.308793,407.067839 670.603193,407.491199 669.474233,407.491199 C668.002553,407.491199 665.825274,406.644479 664.373754,405.374399 L662.982714,408.136319 C664.655994,409.507199 667.075193,410.394239 669.433913,410.394239 C672.578873,410.394239 675.078713,408.902399 675.078713,406.079999 C675.078713,400.97952 667.619513,402.37056 667.619513,399.9312 C667.619513,399.24576 668.244473,398.90304 669.171833,398.90304 C670.320953,398.90304 672.195833,399.50784 673.687673,400.37472 L675.038393,397.57248 C673.586873,396.62496 671.510393,396 669.474233,396 L669.474233,396 Z M599.297279,429.873279 L603.954238,415.76128 L600.285119,415.76128 L597.563519,426.143679 L594.801599,415.76128 L591.293759,415.76128 L588.592319,426.143679 L585.8304,415.76128 L582,415.76128 L586.61664,429.873279 L590.326079,429.873279 L592.987199,420.115839 L595.607999,429.873279 L599.297279,429.873279 Z M616.271997,418.583679 L616.271997,415.76128 L605.224318,415.76128 L605.224318,429.873279 L616.493757,429.873279 L616.493757,427.050879 L608.812798,427.050879 L608.812798,424.208319 L615.546237,424.208319 L615.546237,421.385919 L608.812798,421.385919 L608.812798,418.583679 L616.271997,418.583679 Z M628.186556,427.272639 L629.194556,429.873279 L633.024956,429.873279 L627.077757,415.76128 L623.388477,415.76128 L617.300157,429.873279 L620.989437,429.873279 L622.017597,427.272639 L628.186556,427.272639 Z M627.138237,424.551039 L623.065917,424.551039 L625.122237,419.329599 L627.138237,424.551039 Z M643.608955,418.644159 L643.608955,415.74112 L631.553276,415.74112 L631.553276,418.644159 L635.766716,418.644159 L635.766716,429.873279 L639.355196,429.873279 L639.355196,418.644159 L643.608955,418.644159 Z M658.164474,429.873279 L658.164474,415.76128 L654.575994,415.76128 L654.575994,421.567359 L648.729595,421.567359 L648.729595,415.76128 L645.141115,415.76128 L645.141115,429.873279 L648.729595,429.873279 L648.729595,424.389759 L654.575994,424.389759 L654.575994,429.873279 L658.164474,429.873279 Z M672.034553,418.583679 L672.034553,415.76128 L660.986874,415.76128 L660.986874,429.873279 L672.256313,429.873279 L672.256313,427.050879 L664.575354,427.050879 L664.575354,424.208319 L671.308793,424.208319 L671.308793,421.385919 L664.575354,421.385919 L664.575354,418.583679 L672.034553,418.583679 Z M683.082232,429.873279 L687.154552,429.873279 L684.191032,425.216319 C685.844152,424.389759 686.751352,422.837439 686.751352,420.680319 C686.751352,417.53536 684.614392,415.76128 680.884792,415.76128 L674.574713,415.76128 L674.574713,429.873279 L678.163193,429.873279 L678.163193,425.901759 L680.884792,425.901759 L680.985592,425.901759 L683.082232,429.873279 Z M678.163193,423.079359 L678.163193,418.583679 L680.884792,418.583679 C682.437112,418.583679 683.344312,419.329599 683.344312,420.801279 C683.344312,422.293119 682.437112,423.079359 680.884792,423.079359 L678.163193,423.079359 Z M593.894399,438.183679 L593.894399,435.361279 L583.43136,435.361279 L583.43136,449.473278 L587.01984,449.473278 L587.01984,444.271999 L593.350079,444.271999 L593.350079,441.449599 L587.01984,441.449599 L587.01984,438.183679 L593.894399,438.183679 Z M602.301118,435.240319 C597.946559,435.240319 594.680639,438.284479 594.680639,442.397119 C594.680639,446.529918 597.946559,449.634558 602.301118,449.634558 C606.675838,449.634558 609.941758,446.509758 609.941758,442.397119 C609.941758,438.304639 606.675838,435.240319 602.301118,435.240319 L602.301118,435.240319 Z M602.341438,438.244159 C604.518718,438.244159 606.252478,440.038399 606.252478,442.417279 C606.252478,444.796159 604.518718,446.630718 602.341438,446.630718 C600.184319,446.630718 598.349759,444.796159 598.349759,442.417279 C598.349759,440.038399 600.164159,438.244159 602.341438,438.244159 L602.341438,438.244159 Z M620.344317,449.473278 L624.416637,449.473278 L621.453117,444.816319 C623.106237,443.989759 624.013437,442.437439 624.013437,440.280319 C624.013437,437.135359 621.876477,435.361279 618.146877,435.361279 L611.836798,435.361279 L611.836798,449.473278 L615.425277,449.473278 L615.425277,445.501759 L618.146877,445.501759 L618.247677,445.501759 L620.344317,449.473278 Z M615.425277,442.679359 L615.425277,438.183679 L618.146877,438.183679 C619.699197,438.183679 620.606397,438.929599 620.606397,440.401279 C620.606397,441.893119 619.699197,442.679359 618.146877,442.679359 L615.425277,442.679359 Z M637.480316,438.183679 L637.480316,435.361279 L626.432637,435.361279 L626.432637,449.473278 L637.702076,449.473278 L637.702076,446.650878 L630.021116,446.650878 L630.021116,443.808319 L636.754556,443.808319 L636.754556,440.985919 L630.021116,440.985919 L630.021116,438.183679 L637.480316,438.183679 Z M646.632955,435.240319 C642.338875,435.240319 639.093116,438.304639 639.093116,442.376959 C639.093116,446.509758 642.258235,449.634558 646.511995,449.634558 C648.588475,449.634558 650.826235,448.606398 652.338235,447.054078 L650.241595,444.836479 C649.253755,445.844479 647.882875,446.489598 646.693435,446.489598 C644.455675,446.489598 642.762235,444.695359 642.762235,442.336639 C642.762235,440.018239 644.455675,438.244159 646.693435,438.244159 C647.943355,438.244159 649.314235,438.949759 650.241595,440.078719 L652.318075,437.619199 C650.906875,436.167679 648.729595,435.240319 646.632955,435.240319 L646.632955,435.240319 Z M663.204474,446.872638 L664.212474,449.473278 L668.042873,449.473278 L662.095674,435.361279 L658.406394,435.361279 L652.318075,449.473278 L656.007354,449.473278 L657.035514,446.872638 L663.204474,446.872638 Z M662.156154,444.151039 L658.083834,444.151039 L660.140154,438.929599 L662.156154,444.151039 Z M674.715833,435.199999 C671.328953,435.199999 669.091193,436.853119 669.091193,439.453759 C669.091193,444.453439 676.550393,442.961599 676.550393,445.461439 C676.550393,446.267838 675.844793,446.691198 674.715833,446.691198 C673.244153,446.691198 671.066873,445.844479 669.615353,444.574399 L668.224313,447.336318 C669.897593,448.707198 672.316793,449.594238 674.675513,449.594238 C677.820473,449.594238 680.320312,448.102398 680.320312,445.279999 C680.320312,440.179519 672.861113,441.570559 672.861113,439.131199 C672.861113,438.445759 673.486073,438.103039 674.413433,438.103039 C675.562553,438.103039 677.437433,438.707839 678.929273,439.574719 L680.279992,436.772479 C678.828473,435.824959 676.751993,435.199999 674.715833,435.199999 L674.715833,435.199999 Z M693.061431,438.244159 L693.061431,435.341119 L681.005752,435.341119 L681.005752,438.244159 L685.219192,438.244159 L685.219192,449.473278 L688.807672,449.473278 L688.807672,438.244159 L693.061431,438.244159 Z" id="AMMAPS" stroke="none" fill="#FFFFFF" fill-rule="evenodd"></path>
    <g id="Sun" stroke="none" stroke-width="1" fill="none" fill-rule="evenodd" transform="translate(477.000000, 382.000000)">
        <g id="Group-4" stroke="#FFFFFF" stroke-width="5.42639999">
            <path d="M38.88,70.8171485 L38.88,80.933884" id="Stroke-1" stroke-linecap="round"></path>
            <path d="M19.0059738,61.9279102 L11.8534418,69.0804422" id="Stroke-3" stroke-linecap="round"></path>
            <path d="M10.1167355,38.88 L0,38.88" id="Stroke-4" stroke-linecap="round"></path>
            <path d="M19.0059738,19.0059738 L11.8534418,11.8534418" id="Stroke-6" stroke-linecap="round"></path>
            <path d="M38.88,10.1167355 L38.88,0" id="Stroke-7" stroke-linecap="round"></path>
            <path d="M61.9279102,19.0059738 L69.0804422,11.8534418" id="Stroke-9" stroke-linecap="round"></path>
            <path d="M70.8171485,38.88 L80.933884,38.88" id="Stroke-10" stroke-linecap="round"></path>
            <path d="M61.9279102,61.9279102 L69.0804422,69.0804422" id="Stroke-12" stroke-linecap="round"></path>
            <g id="Group-17" transform="translate(20.233471, 20.233471)">
                <path d="M20.233471,0 C31.4063937,0 40.466942,9.06054831 40.466942,20.233471 C40.466942,31.4063937 31.4063937,40.466942 20.233471,40.466942 C9.06054831,40.466942 0,31.4063937 0,20.233471 C0,9.06054831 9.06054831,0 20.233471,0 L20.233471,0 Z" id="Stroke-15"></path>
            </g>
        </g>
    </g>
</svg>