<svg width="221px" height="89px" viewBox="473 378 221 89" version="1.1" xmlns="http://www.w3.org/2000/svg" xmlns:xlink="http://www.w3.org/1999/xlink">
    <!-- Generator: Sketch 3.8.3 (29802) - http://www.bohemiancoding.com/sketch -->
    <desc>Created with Sketch.</desc>
    <defs></defs>
    <g id="Group" stroke="none" stroke-width="1" fill="none" fill-rule="evenodd" transform="translate(477.000000, 382.000000)">
        <path d="M116.067839,15.0316799 L117.640319,18.5999997 L119.394239,18.5999997 L113.084159,4.48800075 L111.41088,4.48800075 L105.08064,18.5999997 L106.79424,18.5999997 L108.36672,15.0316799 L116.067839,15.0316799 Z M115.382399,13.4793601 L109.05216,13.4793601 L112.197119,6.32256061 L115.382399,13.4793601 Z M135.885118,18.5999997 L135.885118,4.48800075 L133.909438,4.48800075 L128.768638,14.64864 L123.607679,4.48800075 L121.611839,4.48800075 L121.611839,18.5999997 L123.143999,18.5999997 L123.143999,6.96768056 L128.264638,17.1081598 L129.232318,17.1081598 L134.373118,6.96768056 L134.393278,18.5999997 L135.885118,18.5999997 Z M154.956476,18.5999997 L154.956476,4.46784075 L151.045436,4.46784075 L147.215037,12.8745601 L143.384637,4.46784075 L139.453437,4.46784075 L139.453437,18.5999997 L142.658877,18.5999997 L142.658877,9.42720037 L146.045757,17.1887998 L148.384317,17.1887998 L151.771196,9.42720037 L151.791356,18.5999997 L154.956476,18.5999997 Z M167.173435,15.9993599 L168.181435,18.5999997 L172.011835,18.5999997 L166.064635,4.48800075 L162.375356,4.48800075 L156.287036,18.5999997 L159.976316,18.5999997 L161.004476,15.9993599 L167.173435,15.9993599 Z M166.125115,13.2777601 L162.052796,13.2777601 L164.109115,8.05632047 L166.125115,13.2777601 Z M173.322235,4.48800075 L173.322235,18.5999997 L176.910714,18.5999997 L176.910714,14.62848 L179.471034,14.62848 C183.079674,14.62848 185.156154,12.7132801 185.156154,9.40704037 C185.156154,6.26208061 183.079674,4.48800075 179.471034,4.48800075 L173.322235,4.48800075 Z M176.910714,7.31040053 L179.289594,7.31040053 C180.862074,7.31040053 181.769274,8.05632047 181.769274,9.52800036 C181.769274,11.0198402 180.862074,11.8060802 179.289594,11.8060802 L176.910714,11.8060802 L176.910714,7.31040053 Z M192.454073,4.32672076 C189.067194,4.32672076 186.829434,5.97984063 186.829434,8.58048043 C186.829434,13.5801601 194.288633,12.0883202 194.288633,14.58816 C194.288633,15.3945599 193.583033,15.8179199 192.454073,15.8179199 C190.982393,15.8179199 188.805114,14.9711999 187.353594,13.70112 L185.962554,16.4630398 C187.635834,17.8339197 190.055033,18.7209597 192.413753,18.7209597 C195.558713,18.7209597 198.058553,17.2291198 198.058553,14.40672 C198.058553,9.30624038 190.599353,10.6972803 190.599353,8.25792046 C190.599353,7.57248051 191.224313,7.22976054 192.151673,7.22976054 C193.300793,7.22976054 195.175673,7.83456049 196.667513,8.70144042 L198.018233,5.89920064 C196.566713,4.95168071 194.490233,4.32672076 192.454073,4.32672076 L192.454073,4.32672076 Z M122.277119,38.1999993 L126.934078,24.0880004 L123.264959,24.0880004 L120.543359,34.4703996 L117.781439,24.0880004 L114.273599,24.0880004 L111.572159,34.4703996 L108.81024,24.0880004 L104.97984,24.0880004 L109.59648,38.1999993 L113.305919,38.1999993 L115.967039,28.4425601 L118.587839,38.1999993 L122.277119,38.1999993 Z M139.251837,26.9104002 L139.251837,24.0880004 L128.204158,24.0880004 L128.204158,38.1999993 L139.473597,38.1999993 L139.473597,35.3775995 L131.792638,35.3775995 L131.792638,32.5350398 L138.526077,32.5350398 L138.526077,29.71264 L131.792638,29.71264 L131.792638,26.9104002 L139.251837,26.9104002 Z M151.166396,35.5993595 L152.174396,38.1999993 L156.004796,38.1999993 L150.057597,24.0880004 L146.368317,24.0880004 L140.279997,38.1999993 L143.969277,38.1999993 L144.997437,35.5993595 L151.166396,35.5993595 Z M150.118077,32.8777597 L146.045757,32.8777597 L148.102077,27.6563201 L150.118077,32.8777597 Z M166.588795,26.9708802 L166.588795,24.0678404 L154.533116,24.0678404 L154.533116,26.9708802 L158.746556,26.9708802 L158.746556,38.1999993 L162.335036,38.1999993 L162.335036,26.9708802 L166.588795,26.9708802 Z M181.144314,38.1999993 L181.144314,24.0880004 L177.555834,24.0880004 L177.555834,29.89408 L171.709435,29.89408 L171.709435,24.0880004 L168.120955,24.0880004 L168.120955,38.1999993 L171.709435,38.1999993 L171.709435,32.7164798 L177.555834,32.7164798 L177.555834,38.1999993 L181.144314,38.1999993 Z M195.014393,26.9104002 L195.014393,24.0880004 L183.966714,24.0880004 L183.966714,38.1999993 L195.236153,38.1999993 L195.236153,35.3775995 L187.555194,35.3775995 L187.555194,32.5350398 L194.288633,32.5350398 L194.288633,29.71264 L187.555194,29.71264 L187.555194,26.9104002 L195.014393,26.9104002 Z M206.062072,38.1999993 L210.134392,38.1999993 L207.170872,33.5430397 C208.823992,32.7164798 209.731192,31.1641599 209.731192,29.00704 C209.731192,25.8620803 207.594232,24.0880004 203.864632,24.0880004 L197.554553,24.0880004 L197.554553,38.1999993 L201.143033,38.1999993 L201.143033,34.2284796 L203.864632,34.2284796 L203.965432,34.2284796 L206.062072,38.1999993 Z M201.143033,31.4060799 L201.143033,26.9104002 L203.864632,26.9104002 C205.416952,26.9104002 206.324152,27.6563201 206.324152,29.128 C206.324152,30.6198399 205.416952,31.4060799 203.864632,31.4060799 L201.143033,31.4060799 Z M116.874239,46.5103999 L116.874239,43.6880001 L106.4112,43.6880001 L106.4112,57.799999 L109.99968,57.799999 L109.99968,52.5987194 L116.329919,52.5987194 L116.329919,49.7763196 L109.99968,49.7763196 L109.99968,46.5103999 L116.874239,46.5103999 Z M125.280958,43.5670401 C120.926399,43.5670401 117.660479,46.6111999 117.660479,50.7238395 C117.660479,54.8566392 120.926399,57.961279 125.280958,57.961279 C129.655678,57.961279 132.921598,54.8364792 132.921598,50.7238395 C132.921598,46.6313599 129.655678,43.5670401 125.280958,43.5670401 L125.280958,43.5670401 Z M125.321278,46.5708799 C127.498558,46.5708799 129.232318,48.3651197 129.232318,50.7439995 C129.232318,53.1228794 127.498558,54.9574392 125.321278,54.9574392 C123.164159,54.9574392 121.329599,53.1228794 121.329599,50.7439995 C121.329599,48.3651197 123.143999,46.5708799 125.321278,46.5708799 L125.321278,46.5708799 Z M143.324157,57.799999 L147.396477,57.799999 L144.432957,53.1430394 C146.086077,52.3164794 146.993277,50.7641595 146.993277,48.6070397 C146.993277,45.4620799 144.856317,43.6880001 141.126717,43.6880001 L134.816638,43.6880001 L134.816638,57.799999 L138.405117,57.799999 L138.405117,53.8284793 L141.126717,53.8284793 L141.227517,53.8284793 L143.324157,57.799999 Z M138.405117,51.0060795 L138.405117,46.5103999 L141.126717,46.5103999 C142.679037,46.5103999 143.586237,47.2563198 143.586237,48.7279997 C143.586237,50.2198396 142.679037,51.0060795 141.126717,51.0060795 L138.405117,51.0060795 Z M160.460156,46.5103999 L160.460156,43.6880001 L149.412477,43.6880001 L149.412477,57.799999 L160.681916,57.799999 L160.681916,54.9775992 L153.000956,54.9775992 L153.000956,52.1350394 L159.734396,52.1350394 L159.734396,49.3126396 L153.000956,49.3126396 L153.000956,46.5103999 L160.460156,46.5103999 Z M169.612795,43.5670401 C165.318715,43.5670401 162.072956,46.6313599 162.072956,50.7036795 C162.072956,54.8364792 165.238075,57.961279 169.491835,57.961279 C171.568315,57.961279 173.806075,56.9331191 175.318075,55.3807992 L173.221435,53.1631994 C172.233595,54.1711993 170.862715,54.8163192 169.673275,54.8163192 C167.435515,54.8163192 165.742075,53.0220794 165.742075,50.6633595 C165.742075,48.3449597 167.435515,46.5708799 169.673275,46.5708799 C170.923195,46.5708799 172.294075,47.2764798 173.221435,48.4054397 L175.297915,45.9459199 C173.886715,44.4944 171.709435,43.5670401 169.612795,43.5670401 L169.612795,43.5670401 Z M186.184314,55.1993592 L187.192314,57.799999 L191.022713,57.799999 L185.075514,43.6880001 L181.386234,43.6880001 L175.297915,57.799999 L178.987194,57.799999 L180.015354,55.1993592 L186.184314,55.1993592 Z M185.135994,52.4777594 L181.063674,52.4777594 L183.119994,47.2563198 L185.135994,52.4777594 Z M197.695673,43.5267201 C194.308793,43.5267201 192.071033,45.17984 192.071033,47.7804798 C192.071033,52.7801594 199.530233,51.2883195 199.530233,53.7881593 C199.530233,54.5945592 198.824633,55.0179192 197.695673,55.0179192 C196.223993,55.0179192 194.046713,54.1711993 192.595193,52.9011194 L191.204153,55.6630392 C192.877433,57.0339191 195.296633,57.920959 197.655353,57.920959 C200.800313,57.920959 203.300152,56.4291191 203.300152,53.6067193 C203.300152,48.5062397 195.840953,49.8972796 195.840953,47.4579198 C195.840953,46.7724798 196.465913,46.4297599 197.393273,46.4297599 C198.542393,46.4297599 200.417273,47.0345598 201.909113,47.9014398 L203.259832,45.0992 C201.808313,44.15168 199.731833,43.5267201 197.695673,43.5267201 L197.695673,43.5267201 Z M216.041271,46.5708799 L216.041271,43.6678401 L203.985592,43.6678401 L203.985592,46.5708799 L208.199032,46.5708799 L208.199032,57.799999 L211.787512,57.799999 L211.787512,46.5708799 L216.041271,46.5708799 Z M107.016,75.4646387 C106.45152,75.4646387 106.02816,75.9081587 106.02816,76.5129587 C106.02816,77.1177587 106.45152,77.5612787 107.016,77.5612787 C107.56032,77.5612787 107.98368,77.1177587 107.98368,76.5129587 C107.98368,75.9081587 107.56032,75.4646387 107.016,75.4646387 L107.016,75.4646387 Z M117.17664,63.2476789 C113.08416,63.2476789 109.81824,66.3724789 109.81824,70.3238388 C109.81824,74.3155187 113.04384,77.4806387 117.11616,77.4806387 C119.07168,77.4806387 120.96672,76.6137587 122.35776,75.3033587 L121.36992,74.1945587 C120.26112,75.2428787 118.74912,75.8879987 117.1968,75.8879987 C114.01152,75.8879987 111.4512,73.4083187 111.4512,70.3238388 C111.4512,67.2191988 114.01152,64.7596789 117.1968,64.7596789 C118.74912,64.7596789 120.28128,65.4249589 121.36992,66.5337588 L122.3376,65.3039989 C120.98688,64.0339189 119.112,63.2476789 117.17664,63.2476789 L117.17664,63.2476789 Z M130.98624,63.2476789 C126.85344,63.2476789 123.58752,66.3523189 123.58752,70.3439988 C123.58752,74.3155187 126.85344,77.4806387 130.98624,77.4806387 C135.098879,77.4806387 138.364799,74.3155187 138.364799,70.3439988 C138.364799,66.3724789 135.098879,63.2476789 130.98624,63.2476789 L130.98624,63.2476789 Z M130.98624,64.7798389 C134.1312,64.7798389 136.711679,67.2393588 136.711679,70.3439988 C136.711679,73.4486387 134.1312,75.9283187 130.98624,75.9283187 C127.84128,75.9283187 125.22048,73.4486387 125.22048,70.3439988 C125.22048,67.2393588 127.84128,64.7798389 130.98624,64.7798389 L130.98624,64.7798389 Z M155.581439,77.3999987 L155.581439,63.2879989 L153.605759,63.2879989 L148.464959,73.4486387 L143.303999,63.2879989 L141.308159,63.2879989 L141.308159,77.3999987 L142.840319,77.3999987 L142.840319,65.7676789 L147.960959,75.9081587 L148.928639,75.9081587 L154.069439,65.7676789 L154.089599,77.3999987 L155.581439,77.3999987 Z" id="AMMAPS" fill="#FFFFFF"></path>
        <g id="Sun" stroke-width="5.42639999" stroke="#FFFFFF">
            <g id="Group-4">
                <path d="M38.88,70.8171485 L38.88,80.933884" id="Stroke-1" stroke-linecap="round"></path>
                <path d="M19.0059738,61.9279102 L11.8534418,69.0804422" id="Stroke-3" stroke-linecap="round"></path>
                <path d="M10.1167355,38.88 L0,38.88" id="Stroke-4" stroke-linecap="round"></path>
                <path d="M19.0059738,19.0059738 L11.8534418,11.8534418" id="Stroke-6" stroke-linecap="round"></path>
                <path d="M38.88,10.1167355 L38.88,0" id="Stroke-7" stroke-linecap="round"></path>
                <path d="M61.9279102,19.0059738 L69.0804422,11.8534418" id="Stroke-9" stroke-linecap="round"></path>
                <path d="M70.8171485,38.88 L80.933884,38.88" id="Stroke-10" stroke-linecap="round"></path>
                <path d="M61.9279102,61.9279102 L69.0804422,69.0804422" id="Stroke-12" stroke-linecap="round"></path>
                <g id="Group-17" transform="translate(20.233471, 20.233471)">
                    <path d="M20.233471,0 C31.4063937,0 40.466942,9.06054831 40.466942,20.233471 C40.466942,31.4063937 31.4063937,40.466942 20.233471,40.466942 C9.06054831,40.466942 0,31.4063937 0,20.233471 C0,9.06054831 9.06054831,0 20.233471,0 L20.233471,0 Z" id="Stroke-15"></path>
                </g>
            </g>
        </g>
    </g>
</svg>