
<svg width="23px" height="19px" viewBox="76 0 23 19" version="1.1" xmlns="http://www.w3.org/2000/svg" xmlns:xlink="http://www.w3.org/1999/xlink">
    <!-- Generator: Sketch 3.8.3 (29802) - http://www.bohemiancoding.com/sketch -->
    <desc>Created with Sketch.</desc>
    <defs></defs>
    <path d="M92.0625,12.6606857 C92.666,12.6606857 93.1555,12.1957714 93.1555,11.5750286 C93.1555,8.36794286 90.6185,5.778 87.5,5.778 C84.3815,5.778 81.8445,8.35868571 81.8445,11.5657714 C81.8445,12.1865143 82.334,12.6612 82.9375,12.6612 L92.0625,12.6612 L92.0625,12.6606857 Z M97.5,18.2321143 L77,18.2321143 C76.448,18.2321143 76,18.0081143 76,17.7321143 C76,17.4561143 76.448,17.2321143 77,17.2321143 L97.5,17.2321143 C98.052,17.2321143 98.5,17.4561143 98.5,17.7321143 C98.5,18.0081143 98.052,18.2321143 97.5,18.2321143 Z M87.5,4.086 C86.8905,4.086 86.5,3.57788571 86.5,2.95148571 L86.5,1.13502857 C86.5,0.508114286 86.8905,0 87.5,0 C88.1095,0 88.5,0.508114286 88.5,1.13502857 L88.5,2.95097143 C88.5,3.57788571 88.1095,4.086 87.5,4.086 Z M92.675,6.29074286 C92.2435,5.84742857 92.2435,5.12897143 92.675,4.68565714 L93.923,3.40148571 C94.3535,2.95868571 95.053,2.95868571 95.4835,3.40148571 C95.9145,3.8448 95.9145,4.56377143 95.4835,5.00657143 L94.2355,6.29074286 C93.8035,6.73405714 93.1055,6.73405714 92.675,6.29074286 Z M97.6865,10.6035429 L95.921,10.6035429 C95.3115,10.6035429 94.8175,11.0108571 94.8175,11.6377714 C94.8175,12.2276571 95.257,12.6606857 95.8165,12.6606857 L96.6665,12.6606857 L96.7725,12.6606857 L97.6865,12.6606857 C98.296,12.6606857 98.79,12.2590286 98.79,11.6321143 C98.79,11.0052 98.296,10.6035429 97.6865,10.6035429 Z M80.182,11.6321143 C80.182,11.0052 79.688,10.6035429 79.0785,10.6035429 L77.3135,10.6035429 C76.704,10.6035429 76.21,11.0052 76.21,11.6321143 C76.21,12.2590286 76.704,12.6606857 77.3135,12.6606857 L79.079,12.6606857 C79.688,12.6606857 80.182,12.2585143 80.182,11.6321143 Z M82.3255,6.29074286 C82.7565,5.84742857 82.7565,5.12897143 82.3255,4.68565714 L81.077,3.40148571 C80.646,2.95868571 79.9475,2.95868571 79.5165,3.40148571 C79.0855,3.8448 79.0855,4.56377143 79.5165,5.00657143 L80.765,6.29074286 C81.196,6.73457143 81.8945,6.73457143 82.3255,6.29074286 Z" id="Combined-Shape" stroke="none" fill="#AFBED1" fill-rule="evenodd"></path>
</svg>